<svg width="256" height="256" viewBox="0 0 256 256" fill="none" xmlns="http://www.w3.org/2000/svg">
<g clip-path="url(#clip0_1502_143)">
<circle cx="128" cy="128" r="128" fill="#47ABFF"/>
<path d="M128 61.4358C164.693 61.4358 194.56 91.3025 194.56 127.996C194.56 164.689 164.693 194.556 128 194.556C91.3063 194.556 61.4396 164.689 61.4396 127.996C61.4396 91.3025 91.3063 61.4358 128 61.4358ZM128 51.1958C85.5036 51.1958 51.1996 85.4998 51.1996 127.996C51.1996 170.492 85.5036 204.796 128 204.796C170.496 204.796 204.8 170.492 204.8 127.996C204.8 85.4998 170.496 51.1958 128 51.1958Z" fill="white"/>
<path d="M136.533 170.671H119.467V162.138C119.467 157.359 123.221 153.604 128 153.604C132.779 153.604 136.533 157.359 136.533 162.138V170.671Z" fill="white"/>
<path d="M102.4 102.396H85.3333V136.529H102.4V102.396Z" fill="white"/>
<path d="M170.667 102.396H153.6V136.529H170.667V102.396Z" fill="white"/>
</g>
<defs>
<clipPath id="clip0_1502_143">
<rect width="256" height="256" fill="white"/>
</clipPath>
</defs>
</svg>
